<svg width="18" height="19" viewBox="0 0 18 19" fill="none" xmlns="http://www.w3.org/2000/svg">
<g clip-path="url(#clip0_28_821)">
<path d="M17.7856 9.96837C17.7856 9.23092 17.7258 8.69277 17.5963 8.1347H9.17529V11.4632H14.1182C14.0186 12.2904 13.4805 13.5361 12.2846 14.3731L12.2678 14.4846L14.9303 16.5472L15.1148 16.5656C16.8089 15.001 17.7856 12.6989 17.7856 9.96837Z" fill="#4285F4"/>
<path d="M9.17525 18.7382C11.5969 18.7382 13.6298 17.9409 15.1148 16.5657L12.2845 14.3732C11.5271 14.9013 10.5106 15.2701 9.17525 15.2701C6.80344 15.2701 4.79039 13.7055 4.0728 11.543L3.96761 11.5519L1.19905 13.6945L1.16284 13.7952C2.63774 16.725 5.66731 18.7382 9.17525 18.7382Z" fill="#34A853"/>
<path d="M4.07269 11.543C3.88334 10.9849 3.77376 10.3869 3.77376 9.76907C3.77376 9.15116 3.88334 8.55324 4.06273 7.99517L4.05771 7.87632L1.25445 5.69928L1.16273 5.74291C0.554856 6.95873 0.206055 8.32405 0.206055 9.76907C0.206055 11.2141 0.554856 12.5793 1.16273 13.7952L4.07269 11.543Z" fill="#FBBC05"/>
<path d="M9.17525 4.26801C10.8594 4.26801 11.9955 4.9955 12.6433 5.60345L15.1745 3.13195C13.6199 1.68693 11.5969 0.799988 9.17525 0.799988C5.66731 0.799988 2.63774 2.81303 1.16284 5.74291L4.06283 7.99518C4.79039 5.83264 6.80344 4.26801 9.17525 4.26801Z" fill="#EB4335"/>
</g>
<defs>
<clipPath id="clip0_28_821">
<rect width="18" height="18" fill="white" transform="translate(0 0.799988)"/>
</clipPath>
</defs>
</svg>
