<svg width="65" height="19" viewBox="0 0 65 19" fill="none" xmlns="http://www.w3.org/2000/svg" xmlns:xlink="http://www.w3.org/1999/xlink">
<g clip-path="url(#clip0_50_2242)">
<g id="Repeat group 1_inner">
<path d="M14.6666 5.625L11.9999 1.875L3.99992 1.875L1.33325 5.625M14.6666 5.625L7.99992 13.75M14.6666 5.625L1.33325 5.625M7.99992 13.75L1.33325 5.625M7.99992 13.75L5.33325 5.625L7.33325 1.875M7.99992 13.75L10.6666 5.625L8.66658 1.875" stroke="url(#paint0_linear_50_2242)" stroke-width="2" stroke-linecap="round" stroke-linejoin="round"/>
</g>
<use xlink:href="#Repeat%20group%201_inner" transform="translate(29.8127 -7.98829) rotate(60)"/>
<use xlink:href="#Repeat%20group%201_inner" transform="translate(51.6371 13.8361) rotate(120)"/>
<use xlink:href="#Repeat%20group%201_inner" transform="translate(43.6488 43.6488) rotate(-180)"/>
<use xlink:href="#Repeat%20group%201_inner" transform="translate(13.8361 51.6371) rotate(-120)"/>
<use xlink:href="#Repeat%20group%201_inner" transform="translate(-7.98829 29.8127) rotate(-60)"/>
</g>
<path d="M21.1346 15V3.6875H25.5721C28.1502 3.6875 29.6189 5.14062 29.6189 7.375C29.6189 8.92188 28.908 10.0469 27.6189 10.5938L30.0252 15H27.4314L25.2752 10.9844H23.4783V15H21.1346ZM23.4783 9.07812H25.1346C26.5252 9.07812 27.1971 8.5 27.1971 7.375C27.1971 6.23438 26.5252 5.60938 25.1346 5.60938H23.4783V9.07812ZM34.1649 15.1719C31.6024 15.1719 30.0087 13.4062 30.0087 10.7812C30.0087 8.15625 31.6024 6.40625 34.1649 6.40625C36.7274 6.40625 38.3368 8.15625 38.3368 10.7812C38.3368 13.4062 36.7274 15.1719 34.1649 15.1719ZM34.1806 13.375C35.3681 13.375 35.9774 12.2656 35.9774 10.7812C35.9774 9.28125 35.3681 8.17188 34.1806 8.17188C32.9774 8.17188 32.3524 9.28125 32.3524 10.7812C32.3524 12.2656 32.9774 13.375 34.1806 13.375ZM44.5234 11.3906V6.51562H46.8359V15H44.6172V13.4688H44.5234C44.1328 14.4531 43.2266 15.1094 41.9453 15.1094C40.2422 15.1094 39.0859 13.9062 39.0859 11.9219V6.51562H41.3984V11.5156C41.3984 12.5156 41.9766 13.1562 42.8828 13.1562C43.7266 13.1562 44.5234 12.5469 44.5234 11.3906ZM47.9757 15V3.6875H50.2882V7.9375H50.3507C50.6788 7.25 51.3507 6.40625 52.7726 6.40625C54.6476 6.40625 56.2257 7.85938 56.2257 10.7656C56.2257 13.5938 54.7101 15.1406 52.7726 15.1406C51.3819 15.1406 50.6788 14.3438 50.3507 13.6406H50.2569V15H47.9757ZM50.2413 10.75C50.2413 12.2812 50.8976 13.2969 52.0382 13.2969C53.2257 13.2969 53.8507 12.25 53.8507 10.75C53.8507 9.26562 53.2257 8.25 52.0382 8.25C50.8819 8.25 50.2413 9.21875 50.2413 10.75ZM58.0842 18.1875C57.6311 18.1875 57.2092 18.1719 56.9123 18.1406V16.3438C57.2092 16.3594 57.5529 16.375 57.8498 16.375C58.3029 16.375 58.6779 16.3281 58.9592 15.5938L59.0998 15.2344L56.0529 6.51562H58.4748L60.2561 12.7656H60.3498L62.1467 6.51562H64.5998L61.2873 15.9375C60.8029 17.2969 59.8811 18.1875 58.0842 18.1875Z" fill="url(#paint1_linear_50_2242)"/>
<defs>
<linearGradient id="paint0_linear_50_2242" x1="14.6666" y1="7.8125" x2="1.33325" y2="7.8125" gradientUnits="userSpaceOnUse">
<stop stop-color="#667EEA"/>
<stop offset="1" stop-color="#764BA2"/>
</linearGradient>
<linearGradient id="paint1_linear_50_2242" x1="29.6077" y1="-27.7875" x2="75.6704" y2="-11.8611" gradientUnits="userSpaceOnUse">
<stop stop-color="#5A67D8"/>
<stop offset="0.5" stop-color="#9F7AEA"/>
<stop offset="1" stop-color="#667EEA"/>
</linearGradient>
<clipPath id="clip0_50_2242">
<rect width="16" height="15" fill="white"/>
</clipPath>
</defs>
</svg>
