<svg width="60" height="60" viewBox="0 0 60 60" fill="none" xmlns="http://www.w3.org/2000/svg">
<rect width="60" height="60" rx="30" fill="url(#paint0_linear_50_2253)"/>
<path d="M25 27.5V24.5C25 23.1739 25.5268 21.9021 26.4645 20.9645C27.4021 20.0268 28.6739 19.5 30 19.5C31.3261 19.5 32.5979 20.0268 33.5355 20.9645C34.4732 21.9021 35 23.1739 35 24.5V27.5M31 33.5C31 34.0523 30.5523 34.5 30 34.5C29.4477 34.5 29 34.0523 29 33.5C29 32.9477 29.4477 32.5 30 32.5C30.5523 32.5 31 32.9477 31 33.5ZM23 27.5H37C38.1046 27.5 39 28.3954 39 29.5V37.5C39 38.6046 38.1046 39.5 37 39.5H23C21.8954 39.5 21 38.6046 21 37.5V29.5C21 28.3954 21.8954 27.5 23 27.5Z" stroke="url(#paint1_linear_50_2253)" stroke-opacity="0.8" stroke-width="2" stroke-linecap="round" stroke-linejoin="round"/>
<defs>
<linearGradient id="paint0_linear_50_2253" x1="0" y1="0" x2="60" y2="60" gradientUnits="userSpaceOnUse">
<stop stop-color="#667EEA"/>
<stop offset="1" stop-color="#764BA2"/>
</linearGradient>
<linearGradient id="paint1_linear_50_2253" x1="30" y1="19.5" x2="30" y2="39.5" gradientUnits="userSpaceOnUse">
<stop stop-color="#E8D3FF"/>
<stop offset="1" stop-color="#DEECFF"/>
</linearGradient>
</defs>
</svg>
