<svg width="60" height="60" viewBox="0 0 60 60" fill="none" xmlns="http://www.w3.org/2000/svg">
<rect width="60" height="60" rx="30" fill="url(#paint0_linear_67_2329)"/>
<path d="M34.481 25.5191C34.7571 25.5191 34.981 25.2953 34.981 25.0191C34.981 24.743 34.7571 24.5191 34.481 24.5191C34.2048 24.5191 33.981 24.743 33.981 25.0191C33.981 25.2953 34.2048 25.5191 34.481 25.5191Z" fill="url(#paint1_linear_67_2329)" fill-opacity="0.8"/>
<path d="M20.567 34.9331C20.1919 35.3081 19.9811 35.8167 19.981 36.3471V38.5191C19.981 38.7843 20.0863 39.0387 20.2739 39.2262C20.4614 39.4138 20.7157 39.5191 20.981 39.5191H23.981C24.2462 39.5191 24.5005 39.4138 24.6881 39.2262C24.8756 39.0387 24.981 38.7843 24.981 38.5191V37.5191C24.981 37.2539 25.0863 36.9996 25.2739 36.812C25.4614 36.6245 25.7157 36.5191 25.981 36.5191H26.981C27.2462 36.5191 27.5005 36.4138 27.6881 36.2262C27.8756 36.0387 27.981 35.7843 27.981 35.5191V34.5191C27.981 34.2539 28.0863 33.9996 28.2739 33.812C28.4614 33.6245 28.7157 33.5191 28.981 33.5191H29.153C29.6833 33.519 30.192 33.3082 30.567 32.9331L31.381 32.1191C32.7708 32.6033 34.2838 32.6014 35.6724 32.1139C37.0611 31.6263 38.2432 30.682 39.0253 29.4353C39.8075 28.1885 40.1434 26.7133 39.9781 25.2509C39.8128 23.7884 39.1561 22.4254 38.1154 21.3847C37.0747 20.344 35.7117 19.6873 34.2492 19.522C32.7868 19.3567 31.3115 19.6926 30.0648 20.4748C28.8181 21.2569 27.8737 22.439 27.3862 23.8276C26.8987 25.2163 26.8968 26.7293 27.381 28.1191L20.567 34.9331Z" stroke="url(#paint2_linear_67_2329)" stroke-opacity="0.8" stroke-width="2" stroke-linecap="round" stroke-linejoin="round"/>
<path d="M34.481 25.5191C34.7571 25.5191 34.981 25.2953 34.981 25.0191C34.981 24.743 34.7571 24.5191 34.481 24.5191C34.2048 24.5191 33.981 24.743 33.981 25.0191C33.981 25.2953 34.2048 25.5191 34.481 25.5191Z" stroke="url(#paint3_linear_67_2329)" stroke-opacity="0.8" stroke-width="2" stroke-linecap="round" stroke-linejoin="round"/>
<defs>
<linearGradient id="paint0_linear_67_2329" x1="0" y1="0" x2="60" y2="60" gradientUnits="userSpaceOnUse">
<stop stop-color="#667EEA"/>
<stop offset="1" stop-color="#764BA2"/>
</linearGradient>
<linearGradient id="paint1_linear_67_2329" x1="30.0001" y1="19.4809" x2="30.0001" y2="39.5191" gradientUnits="userSpaceOnUse">
<stop stop-color="#E8D3FF"/>
<stop offset="1" stop-color="#DEECFF"/>
</linearGradient>
<linearGradient id="paint2_linear_67_2329" x1="30.0001" y1="19.4809" x2="30.0001" y2="39.5191" gradientUnits="userSpaceOnUse">
<stop stop-color="#E8D3FF"/>
<stop offset="1" stop-color="#DEECFF"/>
</linearGradient>
<linearGradient id="paint3_linear_67_2329" x1="30.0001" y1="19.4809" x2="30.0001" y2="39.5191" gradientUnits="userSpaceOnUse">
<stop stop-color="#E8D3FF"/>
<stop offset="1" stop-color="#DEECFF"/>
</linearGradient>
</defs>
</svg>
