<svg width="15" height="15" viewBox="0 0 15 15" fill="none" xmlns="http://www.w3.org/2000/svg">
<path d="M14 7.50022C14 7.56861 13.9816 7.63559 13.9469 7.69337C13.9123 7.75115 13.8628 7.79734 13.8042 7.82658L1.49014 13.964C1.42864 13.9955 1.35959 14.0067 1.29196 13.9962C1.22434 13.9857 1.16127 13.954 1.11095 13.9051C1.06064 13.8563 1.0254 13.7926 1.00981 13.7224C0.994231 13.6522 0.999027 13.5786 1.02358 13.5113L2.96783 8.0042C3.08254 7.67912 3.08254 7.32131 2.96783 6.99623L1.02289 1.48917C0.998219 1.42176 0.993359 1.34807 1.00895 1.2777C1.02454 1.20734 1.05986 1.14356 1.11029 1.09469C1.16073 1.04582 1.22395 1.01413 1.29171 1.00374C1.35946 0.993346 1.42862 1.00475 1.49014 1.03645L13.8042 7.17385C13.8628 7.20309 13.9123 7.24929 13.9469 7.30707C13.9816 7.36484 14 7.43183 14 7.50022ZM14 7.50022H3.05403" stroke="url(#paint0_linear_57_19881)" stroke-width="2" stroke-linecap="round" stroke-linejoin="round"/>
<defs>
<linearGradient id="paint0_linear_57_19881" x1="7.5" y1="1" x2="7.5" y2="14" gradientUnits="userSpaceOnUse">
<stop stop-color="#667EEA"/>
<stop offset="1" stop-color="#764BA2"/>
</linearGradient>
</defs>
</svg>
